<svg width="248" height="140" viewBox="0 0 248 140" fill="none" xmlns="http://www.w3.org/2000/svg">
<rect width="248" height="140" fill="#272727"/>
<path fill-rule="evenodd" clip-rule="evenodd" d="M244.573 3.45679H3.4266V136.543H244.573V3.45679ZM0 0V140H248V0H0Z" fill="white"/>
<path d="M22.2336 21.7957V38.6583H26.7267V32.9688H29.9361V29.7507H26.7267V25.3999H30.9631V21.7957H22.2336Z" fill="white"/>
<path d="M32.8898 38.6583H37.2545V34.4105H37.4086C37.614 34.4105 37.7937 34.4105 37.9991 34.4105L39.1032 38.6583H43.7761L41.7734 33.2005C43.0571 32.1964 43.699 30.4716 43.699 27.8971C43.699 23.2631 41.7991 21.7957 37.5883 21.7957H32.8898V38.6583ZM37.2802 25.194C39.0775 25.194 39.2315 25.5801 39.2315 28.0259C39.2315 30.8062 38.718 31.1667 37.2545 31.1924V25.194H37.2802Z" fill="white"/>
<path d="M46.1035 21.7957V38.6583H55.2182V35.0541H50.4683V31.939H54.1912V28.7209H50.4683V25.3999H55.2182V21.7957H46.1035Z" fill="white"/>
<path d="M65.7984 21.7957V27.202L66.2092 34.153H65.9524L64.9768 29.3903L63.1538 21.7957H57.7877V38.6583H61.4592V32.9945L61.0484 26.301H61.3052L62.2809 31.2182L64.2065 38.6583H69.4699V21.7957H65.7984Z" fill="white"/>
<path d="M71.2722 21.7957V25.3999H74.2248V38.6583H78.718V25.3999H81.6706V21.7957H71.2722Z" fill="white"/>
<path d="M83.4629 21.7957V38.6583H92.5776V35.0541H87.8277V31.939H91.5506V28.7209H87.8277V25.3999H92.5776V21.7957H83.4629Z" fill="white"/>
<path d="M30.2442 47.5401V52.9464L30.655 59.8974H30.3983L29.4226 55.1347L27.5997 47.5401H22.2336V64.4026H25.9051V58.7389L25.4943 52.0453H25.7511L26.7267 56.9625L28.6524 64.4026H33.9158V47.5401H30.2442Z" fill="white"/>
<path d="M36.1032 64.4026H40.545L40.8017 61.442H43.2666L43.5233 64.4026H47.9651L45.7571 47.5401H38.3112L36.1032 64.4026ZM41.0842 58.018L41.6747 51.0671H42.3936L42.9841 58.018H41.0842Z" fill="white"/>
<path d="M54.9416 47.1539C50.8335 47.1539 49.6268 49.2135 49.6268 52.8177V58.4814C49.6268 62.7807 51.1673 64.6601 56.5591 64.6601L59.6915 64.4026V61.0559H56.5591C54.7618 61.0559 54.12 60.4123 54.12 58.4814V52.8177C54.12 51.273 54.0429 50.5522 54.9416 50.5522C55.8402 50.5522 55.7632 51.273 55.7632 52.8177V56.4734H59.6658L59.9225 52.8177C59.9225 49.2135 59.0496 47.1539 54.9416 47.1539Z" fill="white"/>
<path d="M62.2257 47.5401V64.4026H66.7189V47.5401H62.2257Z" fill="white"/>
<path d="M69.2844 58.7389C69.2844 62.6005 70.7222 64.7888 74.8302 64.7888C78.9382 64.7888 80.3761 62.6005 80.3761 58.7389V53.2038C80.3761 49.3422 78.9896 47.1539 74.8816 47.1539C70.7735 47.1539 69.2844 49.3422 69.2844 53.2038V58.7389ZM73.7775 58.4814V53.4613C73.7775 51.3245 73.8032 50.5522 74.8302 50.5522C75.8572 50.5522 75.8829 51.3245 75.8829 53.4613V58.4814C75.8829 60.6182 75.8572 61.3905 74.8302 61.3905C73.8032 61.3905 73.7775 60.6182 73.7775 58.4814Z" fill="white"/>
<path d="M90.947 47.5401V52.9464L91.3578 59.8974H91.1011L90.1254 55.1347L88.3025 47.5401H82.9364V64.4026H86.6079V58.7389L86.1971 52.0453H86.4539L87.4295 56.9625L89.3552 64.4026H94.6186V47.5401H90.947Z" fill="white"/>
<path d="M96.806 64.4026H101.248L101.505 61.442H103.969L104.226 64.4026H108.668L106.46 47.5401H99.014L96.806 64.4026ZM101.787 58.018L102.378 51.0671H103.096L103.687 58.018H101.787Z" fill="white"/>
<path d="M110.843 47.5401V64.4026H119.162V60.7984H115.336V47.5401H110.843Z" fill="white"/>
<path d="M22.2336 73.2844V90.147H31.3482V86.5428H26.5983V83.4277H30.3212V80.2097H26.5983V76.8886H31.3482V73.2844H22.2336Z" fill="white"/>
<path d="M38.3853 72.8983C34.611 72.8983 33.2759 74.7004 33.2759 77.5323C33.2759 83.3762 39.4379 83.6852 39.4379 85.9507C39.4379 86.9547 39.2325 87.3151 38.3853 87.3151C37.538 87.3151 37.3326 86.8002 37.3326 85.6417V85.1268H33.3529L33.2759 86.0279C33.2759 88.9628 34.534 90.5332 38.3339 90.5332C42.1595 90.5332 43.5973 88.7825 43.5973 86.0794C43.5973 80.3384 37.4353 80.776 37.4353 77.6095C37.4353 76.5797 37.615 76.1163 38.3853 76.1163C39.1555 76.1163 39.3352 76.5797 39.3352 78.0471V79.0769H43.3149L43.3919 77.7897C43.3919 74.4429 42.2109 72.8983 38.3853 72.8983Z" fill="white"/>
<path d="M50.8295 72.8983C46.7215 72.8983 45.5147 74.9578 45.5147 78.562V84.2258C45.5147 88.5251 47.0553 90.4044 52.447 90.4044L55.5794 90.147V86.8002H52.447C50.6498 86.8002 50.0079 86.1566 50.0079 84.2258V78.562C50.0079 77.0174 49.9309 76.2965 50.8295 76.2965C51.7281 76.2965 51.6511 77.0174 51.6511 78.562V82.2177H55.5537L55.8105 78.562C55.8105 74.9578 54.9375 72.8983 50.8295 72.8983Z" fill="white"/>
<path d="M57.6001 84.4832C57.6001 88.3449 59.038 90.5332 63.146 90.5332C67.254 90.5332 68.6918 88.3449 68.6918 84.4832V78.9482C68.6918 75.0865 67.3054 72.8983 63.1973 72.8983C59.0893 72.8983 57.6001 75.0865 57.6001 78.9482V84.4832ZM62.0933 84.2258V79.2056C62.0933 77.0689 62.119 76.2965 63.146 76.2965C64.173 76.2965 64.1987 77.0689 64.1987 79.2056V84.2258C64.1987 86.3626 64.173 87.1349 63.146 87.1349C62.119 87.1349 62.0933 86.3626 62.0933 84.2258Z" fill="white"/>
<path d="M71.2521 73.2844V90.147H79.5709V86.5428H75.7453V73.2844H71.2521Z" fill="white"/>
<path d="M80.4581 90.147H84.8999L85.1567 87.1864H87.6215L87.8782 90.147H92.32L90.112 73.2844H82.6662L80.4581 90.147ZM85.4391 83.7624L86.0296 76.8114H86.7485L87.3391 83.7624H85.4391Z" fill="white"/>
<path d="M102.824 72.8983C99.0497 72.8983 97.7146 74.7004 97.7146 77.5323C97.7146 83.3762 103.877 83.6852 103.877 85.9507C103.877 86.9547 103.671 87.3151 102.824 87.3151C101.977 87.3151 101.771 86.8002 101.771 85.6417V85.1268H97.7917L97.7146 86.0279C97.7146 88.9628 98.9727 90.5332 102.773 90.5332C106.598 90.5332 108.036 88.7825 108.036 86.0794C108.036 80.3384 101.874 80.776 101.874 77.6095C101.874 76.5797 102.054 76.1163 102.824 76.1163C103.594 76.1163 103.774 76.5797 103.774 78.0471V79.0769H107.754L107.831 77.7897C107.831 74.4429 106.65 72.8983 102.824 72.8983Z" fill="white"/>
<path d="M110.467 73.2844V90.147H119.582V86.5428H114.832V83.4277H118.555V80.2097H114.832V76.8886H119.582V73.2844H110.467Z" fill="white"/>
<path d="M138.352 73.2844H131.677L130.983 79.1027L130.393 85.7705L129.802 79.1542L129.109 73.2844H122.382L121.124 90.147H125.515L125.771 82.1662L125.874 76.6312H126.362L126.978 82.0633L127.877 90.147H132.883L133.782 82.089L134.398 76.6312H134.86L134.963 82.1662L135.22 90.147H139.61L138.352 73.2844Z" fill="white"/>
<path d="M38.4346 99.0288H31.7591L31.0658 104.847L30.4753 111.515L29.8848 104.899L29.1915 99.0288H22.4646L21.2065 115.891H25.597L25.8538 107.911L25.9565 102.376H26.4443L27.0605 107.808L27.9591 115.891H32.9658L33.8644 107.833L34.4806 102.376H34.9428L35.0455 107.911L35.3022 115.891H39.6927L38.4346 99.0288Z" fill="white"/>
<path d="M41.2272 110.228C41.2272 114.089 42.665 116.278 46.773 116.278C50.8811 116.278 52.3189 114.089 52.3189 110.228V104.693C52.3189 100.831 50.9324 98.6426 46.8244 98.6426C42.7163 98.6426 41.2272 100.831 41.2272 104.693V110.228ZM45.7203 109.97V104.95C45.7203 102.813 45.746 102.041 46.773 102.041C47.8 102.041 47.8257 102.813 47.8257 104.95V109.97C47.8257 112.107 47.8 112.879 46.773 112.879C45.746 112.879 45.7203 112.107 45.7203 109.97Z" fill="white"/>
<path d="M54.8792 115.891H59.244V111.644H59.398C59.6034 111.644 59.7831 111.644 59.9885 111.644L61.0926 115.891H65.7655L63.7628 110.434C65.0466 109.43 65.6884 107.705 65.6884 105.13C65.6884 100.496 63.7885 99.0288 59.5777 99.0288H54.8792V115.891ZM59.2696 102.427C61.0669 102.427 61.2209 102.813 61.2209 105.259C61.2209 108.039 60.7074 108.4 59.244 108.425V102.427H59.2696Z" fill="white"/>
<path d="M68.0929 99.0288V115.891H72.586C76.8224 115.891 79.1075 113.883 79.1075 107.19C79.1075 100.625 76.5657 99.0288 72.586 99.0288H68.0929ZM72.6887 112.287H72.3806V102.633H72.6887C74.2293 102.633 74.5887 103.457 74.5887 107.19C74.5887 111.438 74.2293 112.287 72.6887 112.287Z" fill="white"/>
<path d="M80.7841 115.891H85.2259L85.4826 112.931H87.9474L88.2042 115.891H92.646L90.4379 99.0288H82.9921L80.7841 115.891ZM85.765 109.507L86.3556 102.556H87.0745L87.665 109.507H85.765Z" fill="white"/>
<path d="M97.8508 117.359L98.236 117.693C98.8778 117.771 99.2116 117.848 99.2116 118.337C99.2116 119.032 98.5184 118.929 97.5941 118.929V121.22C98.0562 121.298 98.7495 121.349 99.1603 121.349C101.522 121.349 102.935 120.809 102.935 118.8C102.935 117.488 102.318 116.689 100.572 116.458L100.624 116.149C100.829 116.149 101.035 116.149 101.24 116.149L104.372 115.891V112.545H101.24C99.4427 112.545 98.8008 111.901 98.8008 109.97V104.306C98.8008 102.762 98.7238 102.041 99.6224 102.041C100.521 102.041 100.444 102.762 100.444 104.306V107.962H104.347L104.603 104.306C104.603 100.702 103.73 98.6426 99.6224 98.6426C95.5144 98.6426 94.3077 100.702 94.3077 104.306V109.97C94.3077 113.265 95.2063 115.145 98.0562 115.84L97.8508 117.359Z" fill="white"/>
<path d="M106.008 115.891H110.45L110.706 112.931H113.171L113.428 115.891H117.87L115.662 99.0288H108.216L106.008 115.891ZM110.989 109.507L111.579 102.556H112.298L112.889 109.507H110.989Z" fill="white"/>
<path d="M16.4941 101.321H123.116V113.691H16.4941V101.321Z" fill="#FFD0D0" fill-opacity="0.4"/>
</svg>
