<svg width="40" height="40" viewBox="0 0 40 40" fill="none" xmlns="http://www.w3.org/2000/svg">
<path d="M31.9748 14.9328C31.9748 17.8319 31.3445 20.479 29.958 23.1261C28.5714 25.8992 26.5546 28.1681 24.0336 29.8067C21.2605 31.6975 17.9832 32.5798 14.4538 32.5798C10.9244 32.5798 7.77311 31.6975 5 29.8067C5.37815 29.8067 5.88235 29.8067 6.51261 29.8067C9.41177 29.8067 11.9328 28.9244 14.2017 27.1597C12.8151 27.1597 11.5546 26.7815 10.5462 25.8992C9.53782 25.0168 8.78151 24.1345 8.40336 22.874C8.78151 22.874 9.15966 22.874 9.53781 22.874C10.042 22.874 10.6723 22.874 11.1765 22.7479C9.78992 22.3697 8.52941 21.7395 7.64706 20.605C6.7647 19.4706 6.2605 18.2101 6.2605 16.6975V16.6975C6.89076 17.2017 7.89916 17.4538 8.90756 17.5798C8.02521 16.9496 7.39496 16.1933 6.89076 15.3109C6.38655 14.4286 6.13445 13.4202 6.13445 12.2857C6.13445 11.1513 6.38655 10.1429 7.0168 9.13445C8.52941 11.0252 10.4202 12.6639 12.6891 13.7983C14.958 14.9328 17.2269 15.563 19.7479 15.6891C19.6219 15.1849 19.6218 14.6807 19.6218 14.3025C19.6218 13.1681 19.8739 12.1597 20.5042 11.1513C21.1345 10.1429 21.7647 9.38655 22.7731 8.88235C23.7815 8.37815 24.7899 8 25.7983 8C26.6807 8 27.563 8.12605 28.3193 8.5042C29.0756 8.88235 29.7059 9.38655 30.3361 9.89076C31.7227 9.63866 33.1092 9.13445 34.2437 8.37815C33.7395 9.89076 32.8571 11.0252 31.4706 11.7815C32.605 11.6555 33.8655 11.2773 35 10.7731C34.1176 12.0336 33.1092 13.1681 31.8487 14.0504C31.9748 14.4286 31.9748 14.6807 31.9748 14.9328Z" fill="white"/>
</svg>
