<svg width="40" height="40" viewBox="0 0 40 40" fill="none" xmlns="http://www.w3.org/2000/svg">
<path d="M35 33.2857C35 33.7143 34.8571 34.1429 34.5714 34.4286C34.2857 34.7143 33.8571 35 33.2857 35H25.7143V23.2857H29.5714L30.1429 18.8571H25.7143V16C25.7143 15.2857 25.8571 14.7143 26.1429 14.4286C26.4286 14 27 13.7143 27.8571 13.7143H30.2857V9.71429C29.2857 9.57143 28.1429 9.57143 26.8571 9.57143C25.1429 9.57143 23.7143 10.1429 22.5714 11.1429C21.4286 12.1429 21 13.5714 21 15.5714V18.8571H17.1429V23.2857H21V35H6.71429C6.28571 35 5.85714 34.8571 5.57143 34.4286C5.28571 34 5 33.7143 5 33.2857V6.71429C5 6.28571 5.14286 5.85714 5.42857 5.57143C5.71429 5.28571 6.14286 5 6.71429 5H33.4286C33.8571 5 34.2857 5.14286 34.5714 5.42857C34.8571 5.71429 35 6.14286 35 6.71429V33.2857Z" fill="white"/>
</svg>
