<svg width="40" height="40" viewBox="0 0 40 40" fill="none" xmlns="http://www.w3.org/2000/svg">
<path d="M37.9505 10.9326C38.237 12.0562 38.5234 13.882 38.6667 16.2697V19.5V22.7303C38.5234 25.2584 38.237 26.9438 37.9505 28.2079C37.6641 28.9101 37.3776 29.6124 36.8047 30.1742C36.2318 30.736 35.5156 31.1573 34.6562 31.2978C33.5104 31.5787 30.7891 31.8595 26.4922 32H20.3333H14.1745C9.8776 31.8595 7.15624 31.5787 6.01041 31.2978C5.15104 31.0169 4.57812 30.736 3.86197 30.1742C3.14583 29.6124 2.85938 28.9101 2.71615 28.2079C2.42969 27.0843 2.14323 25.2584 2 22.7303V19.5C2 18.5169 2 17.3933 2 16.2697C2.14323 13.882 2.42969 12.0562 2.71615 10.9326C3.0026 10.0899 3.28906 9.52809 3.86197 8.82584C4.43489 8.1236 5.15104 7.8427 6.01041 7.70225C7.15624 7.42135 9.8776 7.14045 14.1745 7H20.3333H26.4922C30.7891 7.14045 33.5104 7.42135 34.6562 7.70225C35.5156 7.98315 36.0885 8.26404 36.8047 8.82584C37.5208 9.38764 37.8073 10.2303 37.9505 10.9326ZM16.6094 24.9775L26.2057 19.6404L16.6094 14.3034V24.9775Z" fill="white"/>
</svg>
