<svg width="40" height="40" viewBox="0 0 40 40" fill="none" xmlns="http://www.w3.org/2000/svg">
<path d="M34.8571 13.7143C34.8571 15 34.8571 17 34.8571 20C34.8571 23 34.8571 25 34.7143 26.2857C34.5714 27.5714 34.4286 28.7143 34.1429 29.5714C33.7143 30.7143 33.1429 31.7143 32.2857 32.4286C31.4286 33.1429 30.4286 33.8571 29.4286 34.2857C28.4286 34.5714 27.4286 34.8571 26.1429 34.8571C24.8571 34.8571 22.8571 35 20 35C17.1429 35 15 35 13.7143 34.8571C12.4286 34.7143 11.2857 34.5714 10.4286 34.2857C9.28571 33.8571 8.28571 33.2857 7.57143 32.5714C6.85714 31.8571 6.14286 30.7143 5.71429 29.7143C5.42858 28.7143 5.14286 27.7143 5.14286 26.4286C5.14286 25.1429 5 23 5 20.1429C5 17.2857 5 15.1429 5.14286 13.8571C5.28572 12.5714 5.42858 11.4286 5.71429 10.5714C6.14286 9.42857 6.71428 8.42857 7.57143 7.71429C8.42857 7 9.42857 6.28571 10.4286 5.85714C11.4286 5.57143 12.4286 5.28571 13.7143 5.28571C15 5.28571 17 5 20 5C23 5 25 5 26.2857 5.14286C27.5714 5.28571 28.7143 5.42857 29.5714 5.71429C30.7143 6.14286 31.7143 6.71429 32.4286 7.57143C33.1429 8.42857 33.8571 9.42857 34.2857 10.4286C34.5714 11.4286 34.7143 12.4286 34.8571 13.7143ZM31.7143 28.8571C32 28.1429 32.1429 26.8571 32.2857 25.2857C32.2857 24.2857 32.2857 22.8571 32.2857 21.1429V19C32.2857 17.1429 32.2857 15.7143 32.2857 14.8571C32.1429 13.1429 32 12 31.7143 11.2857C31.1429 9.85714 30.2857 9 28.8571 8.42857C28.1429 8.14286 27 8 25.2857 7.85714C24.2857 7.85714 22.8571 7.85714 21.1429 7.85714H19C17.1429 7.85714 15.8571 7.85714 14.8571 7.85714C13.1429 8 12 8.14286 11.2857 8.42857C9.85714 9 9 9.85714 8.42857 11.2857C8.14285 12 8.00001 13.1429 7.85715 14.8571C7.85715 15.8571 7.85715 17.2857 7.85715 19V21.1429C7.85715 23 7.85715 24.2857 7.85715 25.2857C8.00001 27 8.14285 28.1429 8.42857 28.8571C9 30.2857 10 31.1429 11.2857 31.7143C12 32 13.2857 32.1429 14.8571 32.2857C15.8571 32.2857 17.2857 32.2857 19 32.2857H21C22.8571 32.2857 24.2857 32.2857 25.1429 32.2857C26.8571 32.1429 28 32 28.7143 31.7143C30.1429 31.1429 31.1429 30.1429 31.7143 28.8571ZM20 12.2857C21.4286 12.2857 22.7143 12.5714 23.8571 13.2857C25 14 26 14.8571 26.7143 16.1429C27.4286 17.4286 27.7143 18.5714 27.7143 20C27.7143 21.4286 27.4286 22.7143 26.7143 23.8571C26 25 25.1429 26 23.8571 26.7143C22.5714 27.4286 21.4286 27.7143 20 27.7143C18.5714 27.7143 17.2857 27.4286 16.1429 26.7143C15 26 14 25.1429 13.2857 23.8571C12.5714 22.5714 12.2857 21.4286 12.2857 20C12.2857 18.5714 12.5714 17.2857 13.2857 16.1429C14 15 14.8571 14 16.1429 13.2857C17.4286 12.5714 18.5714 12.2857 20 12.2857ZM20 25C21.4286 25 22.5714 24.5714 23.5714 23.5714C24.5714 22.5714 25 21.4286 25 20C25 18.5714 24.5714 17.4286 23.5714 16.4286C22.5714 15.4286 21.4286 15 20 15C18.5714 15 17.4286 15.4286 16.4286 16.4286C15.4286 17.4286 15 18.5714 15 20C15 21.4286 15.4286 22.5714 16.4286 23.5714C17.4286 24.5714 18.5714 25 20 25ZM29.7143 12C29.7143 11.5714 29.5714 11.1429 29.1429 10.7143C28.7143 10.2857 28.4286 10.1429 27.8571 10.1429C27.2857 10.1429 27 10.2857 26.7143 10.7143C26.4286 11.1429 26.1429 11.4286 26.1429 12C26.1429 12.5714 26.2857 12.8571 26.7143 13.2857C27.1429 13.7143 27.4286 13.8571 28 13.8571C28.5714 13.8571 28.8571 13.7143 29.2857 13.2857C29.7143 12.8571 29.7143 12.4286 29.7143 12Z" fill="white"/>
</svg>
